:SAMPLES-PER-SECOND 30
:FULLY-SPECIFIED
:DEGREES
275
root  34.7674152 36.49499848 -14.93104499 8.149039268 -6.650374413 3.867678642
lowerback  -7.115490437 -2.369780064 -1.326979995
upperback  -4.312860012 -2.653379917 -2.880970001
thorax  -0.540193975 -1.158830047 -2.396500111
lowerneck  -6.794660091 -11.89039993 -10.81000042
upperneck  16.25799942 -16.35440254 10.84379864
head  7.932779789 -7.477160454 3.650579929
lclavicle  0 -4.497500157e-015 -2.743230041e-014
lhumerus  -50.93809891 29.0678997 62.68899918
lradius  -2.057401616e-006 -6.507048965e-006 31.48080063
lwrist  4.824992743e-007 -3.790274832e-007 -26.47909927
lhand  -4.419286297e-031 -36.96279907 -10.48649979
lfingers  90 7.125020027 -90
lthumb  94.80524846 -25.32371034 101.1189499
rclavicle  0 -4.497500157e-015 -2.743230041e-014
rhumerus  -71.97419739 -29.15370178 -24.92119598
rradius  -5.16745672e-007 2.214343908e-008 96.27030182
rwrist  -0.0001011603963 0.007318042684 176.2570038
rhand  -1.767866774e-031 2.925669909 -4.878419876
rfingers  -90 -7.125020027 -90
rthumb  -84.10383778 -10.76188468 -61.05464127
rfemur  -12.67677689 16.47190857 12.71426296
rtibia  -1.439518571 -1.356515408 21.61459923
rfoot  0.08214560151 -22.74027061 -35.20616531
rtoes  3.830610922 19.64449344 -101.2640332
lfemur  -8.038630486 -16.89219666 -20.71146584
ltibia  2.365204334 -1.660121202 15.22579765
lfoot  1.051752687 -22.50083923 38.43793106
ltoes  -8.584405163 -18.13252298 -115.8760177
276
root  34.76536067 36.49480024 -14.93417184 8.149583817 -6.736340046 3.882436275
lowerback  -7.179259777 -2.350500107 -1.309970617
upperback  -4.294109821 -2.628370047 -2.861320019
thorax  -0.4846050143 -1.147340059 -2.386950016
lowerneck  -6.840849876 -11.85809994 -10.74530029
upperneck  16.28039932 -16.30689812 10.7954998
head  7.932779789 -7.452429295 3.629270077
lclavicle  0 -4.497500157e-015 -2.743230041e-014
lhumerus  -50.91859818 29.11070061 62.74020004
lradius  -2.057401616e-006 -6.507048965e-006 31.48509979
lwrist  4.824992743e-007 -3.790274832e-007 -26.52219963
lhand  -4.419222529e-031 -36.96170044 -10.42280006
lfingers  90 7.125020027 -90
lthumb  94.79112622 -25.26119844 101.1119248
rclavicle  0 -4.497500157e-015 -2.743230041e-014
rhumerus  -71.85929871 -29.20809937 -25.96349716
rradius  -5.16745672e-007 2.214343908e-008 95.61569977
rwrist  -0.0001011603963 0.007538665552 176.5460052
rhand  -1.76849266e-031 3.298680067 -4.564620018
rfingers  -90 -7.125020027 -90
rthumb  -83.85020508 -11.05088096 -60.65862038
rfemur  -12.71497154 16.46235085 12.69939518
rtibia  -1.453978419 -1.38648653 21.65699196
rfoot  0.07846194506 -22.80707741 -35.12600327
rtoes  3.791922953 19.65171214 -101.1489735
lfemur  -8.01544857 -16.92503738 -20.7417717
ltibia  2.387571335 -1.689682603 15.18980789
lfoot  1.055056691 -22.41685486 38.51437378
ltoes  -8.616414607 -18.11773326 -115.9789111
277
root  34.76314094 36.49486331 -14.9372266 8.160678864 -6.83973217 3.884240866
lowerback  -7.228660583 -2.320669889 -1.261839747
upperback  -4.276830196 -2.591180086 -2.862240076
thorax  -0.4405530095 -1.130380034 -2.41463995
lowerneck  -6.870200157 -11.83329964 -10.72060013
upperneck  16.30459976 -16.27199936 10.78180027
head  7.938499928 -7.433469296 3.624230146
lclavicle  0 -4.497500157e-015 -2.743230041e-014
lhumerus  -50.8852005 29.08609962 62.78030014
lradius  -2.057401616e-006 -6.507048965e-006 31.4810276
lwrist  4.824992743e-007 -3.790274832e-007 -26.50510025
lhand  -4.419582373e-031 -36.96789932 -10.30860043
lfingers  90 7.125020027 -90
lthumb  94.76963654 -25.14894207 101.1080932
rclavicle  0 -4.497500157e-015 -2.743230041e-014
rhumerus  -71.7818985 -29.2901001 -26.93230247
rradius  -5.16745672e-007 2.214343908e-008 94.75019836
rwrist  -0.0001011603963 0.007538665552 176.6629944
rhand  -0 2.915549994 -4.713069916
rfingers  -90 -7.125020027 -90
rthumb  -84.02499359 -10.90612461 -61.04919941
rfemur  -12.75121975 16.50023079 12.68754101
rtibia  -1.456744552 -1.433581948 21.66630363
rfoot  0.07167236507 -22.90684891 -35.08113861
rtoes  3.802006318 19.64983806 -101.1789579
lfemur  -8.017520905 -17.0052681 -20.75421715
ltibia  2.384851456 -1.752049685 15.19655514
lfoot  1.064227462 -22.28375053 38.62862778
ltoes  -8.592369644 -18.12884948 -115.9016117
278
root  34.75972874 36.49383305 -14.938766 8.154175758 -6.914298058 3.90001893
lowerback  -7.274979591 -2.306960106 -1.232360125
upperback  -4.266890049 -2.575139999 -2.838490009
thorax  -0.4043880105 -1.123489976 -2.407500029
lowerneck  -6.918499947 -11.80309963 -10.69960022
upperneck  16.34740067 -16.22789955 10.76329994
head  7.952610016 -7.409470558 3.618210077
lclavicle  0 -4.497500157e-015 -2.743230041e-014
lhumerus  -50.84460068 29.02799988 62.86899948
lradius  -2.057401616e-006 -6.507048965e-006 31.485466
lwrist  4.824992743e-007 -3.790274832e-007 -26.4503994
lhand  -0 -36.95249939 -10.28479958
lfingers  90 7.125020027 -90
lthumb  94.75750615 -25.12612947 101.0895882
rclavicle  0 -4.497500157e-015 -2.743230041e-014
rhumerus  -71.4701004 -29.43350029 -27.83320427
rradius  -5.16745672e-007 2.214343908e-008 93.86170197
rwrist  -0.0001011603963 0.007538665552 177.0010071
rhand  -0 2.867269993 -4.93156004
rfingers  -90 -7.125020027 -90
rthumb  -84.14507185 -10.71297455 -61.11685804
rfemur  -12.76006317 16.52251053 12.67695904
rtibia  -1.462348342 -1.451942921 21.68494225
rfoot  0.06805685163 -22.94720268 -35.03715515
rtoes  3.808418973 19.64864352 -101.1980284
lfemur  -7.998456955 -17.04073334 -20.78365898
ltibia  2.397902727 -1.812467098 15.18039131
lfoot  1.041624427 -22.1426487 38.63364792
ltoes  -8.616026495 -18.117913 -115.977663
279
root  34.75851825 36.49390814 -14.93901981 8.170689583 -6.989991188 3.907497644
lowerback  -7.30739975 -2.290060043 -1.202050328
upperback  -4.249360085 -2.555299997 -2.830389977
thorax  -0.3687140048 -1.114979982 -2.416340113
lowerneck  -6.949850082 -11.77180004 -10.67459965
upperneck  16.35820007 -16.18149948 10.73729992
head  7.951859951 -7.387030125 3.610630035
lclavicle  0 -4.497500157e-015 -2.743230041e-014
lhumerus  -50.79330063 28.93309975 62.9598999
lradius  -2.057401616e-006 -6.507048965e-006 31.49691772
lwrist  4.824992743e-007 -3.790274832e-007 -26.33269882
lhand  -4.419704412e-031 -36.97000122 -10.2578001
lfingers  90 7.125020027 -90
lthumb  94.75980908 -25.09891884 101.1058154
rclavicle  0 -4.497500157e-015 -2.743230041e-014
rhumerus  -71.18460083 -29.4864006 -28.84370232
rradius  -5.16745672e-007 2.214343908e-008 92.93969727
rwrist  -0.0001011603963 0.007538665552 177.3220062
rhand  -8.839731404e-032 2.975660086 -4.222549915
rfingers  -90 -7.125020027 -90
rthumb  -83.7666517 -11.3374026 -60.94336324
rfemur  -12.79282856 16.49489021 12.65621758
rtibia  -1.462983966 -1.489563584 21.68915939
rfoot  0.06879492104 -23.01646233 -34.98912048
rtoes  3.814154764 19.64757329 -101.2150869
lfemur  -8.034584045 -17.00714684 -20.77882576
ltibia  2.388397694 -1.825618982 15.20464611
lfoot  1.047966003 -22.1246109 38.64760208
ltoes  -8.676434174 -18.08981583 -116.1720619
